#!OML:ASF H:\Terrain\Patient Classification 1\Takeo\Monday\TakeoMonday.ASF
:FULLY-SPECIFIED
:DEGREES
910
root 10.259 17.7603 -1.6671 -1.85683 0.0883518 -1.40313
lowerback 12.8345 1.78092 6.59783
upperback 9.88237 2.9839 -1.53299
thorax 3.73372 1.92706 -5.59312
lowerneck -8.50564 4.212 1.04528
upperneck 38.2843 7.07412 -2.16599
head 14.8135 2.94421 -0.0405114
rclavicle -1.58282e-014 1.78906e-015
rhumerus -0.756815 75.8075 -68.9414
rradius 95.5079
rwrist -39.8757
rhand -17.985 14.3819
rfingers 7.12502
rthumb 8.28483 -15.4356
lclavicle -1.58282e-014 1.78906e-015
lhumerus -27.5363 7.63619 83.3186
lradius 44.3217
lwrist 36.3719
lhand -18.2024 20.3813
lfingers 7.12502
lthumb 8.07499 50.207
rfemur -6.8358 -4.18633 20.0061
rtibia 22.9624
rfoot -12.612 -17.5469
rtoes 2.35906
lfemur -11.5575 0.932788 -19.4235
ltibia 28.1434
lfoot -12.3588 11.1368
ltoes -4.13614
911
root 10.2709 17.7783 -1.63281 -2.03354 -0.225266 -1.56229
lowerback 12.6802 1.70406 6.52675
upperback 9.47559 2.87156 -1.40142
thorax 3.34262 1.83402 -5.40777
lowerneck -8.39945 4.2935 0.784678
upperneck 38.5853 7.23995 -2.07419
head 14.9242 2.98382 0.0665911
rclavicle -1.31695e-015 -4.96962e-017
rhumerus -1.22274 76.1168 -69.0546
rradius 96.5883
rwrist -41.0448
rhand -17.7341 13.9721
rfingers 7.12502
rthumb 8.52693 -15.8357
lclavicle -1.31695e-015 -4.96962e-017
lhumerus -28.1905 8.05698 83.1599
lradius 43.9782
lwrist 36.3516
lhand -18.0137 20.5982
lfingers 7.12502
lthumb 8.25709 50.4169
rfemur -6.3876 -3.97175 20.1199
rtibia 22.6158
rfoot -12.5513 -17.522
rtoes 2.0481
lfemur -11.0325 0.754243 -19.2525
ltibia 27.8966
lfoot -12.6981 11.4289
ltoes -2.24851
912
root 10.2864 17.7884 -1.60117 -2.18075 -0.211875 -1.39675
lowerback 12.4564 1.55303 6.31052
upperback 9.11211 2.64676 -1.42248
thorax 3.02258 1.68836 -5.28892
lowerneck -8.26762 4.40242 1.03714
upperneck 38.7179 7.48345 -2.43326
head 15 3.07467 -0.0936896
rclavicle -1.77415e-014 1.07344e-014
rhumerus -1.98544 76.194 -69.6162
rradius 97.5537
rwrist -41.1285
rhand -17.4494 13.5103
rfingers 7.12502
rthumb 8.80168 -16.2861
lclavicle -1.77415e-014 1.07344e-014
lhumerus -28.8596 8.3628 82.9534
lradius 43.7703
lwrist 36.3108
lhand -18.0699 20.2735
lfingers 7.12502
lthumb 8.2029 50.0943
rfemur -5.95495 -3.9898 19.8682
rtibia 22.2614
rfoot -12.423 -17.5858
rtoes 1.4157
lfemur -10.5552 0.297185 -19.471
ltibia 27.5641
lfoot -12.8494 11.7047
ltoes -0.62421
913
root 10.2979 17.788 -1.56877 -2.44237 -0.376111 -1.12875
lowerback 12.1709 1.54117 6.07987
upperback 8.93957 2.5981 -1.54557
thorax 2.97506 1.64995 -5.27712
lowerneck -8.36002 4.45351 1.21782
upperneck 38.859 7.54508 -2.48193
head 15.1056 3.11396 -0.132767
rclavicle -7.25564e-015 6.26172e-015
rhumerus -2.10164 75.9316 -69.7313
rradius 98.4075
rwrist -41.5281
rhand -17.3416 13.1316
rfingers 7.12502
rthumb 8.90574 -16.6604
lclavicle -7.25564e-015 6.26172e-015
lhumerus -29.1236 8.5007 82.7723
lradius 43.3852
lwrist 36.0961
lhand -18.4547 19.6751
lfingers 7.12502
lthumb 7.83152 49.51
rfemur -5.41298 -3.86229 19.5238
rtibia 21.9564
rfoot -12.2028 -17.5753
rtoes 1.42088
lfemur -9.94436 0.212896 -19.8046
ltibia 27.1961
lfoot -12.8575 11.9467
ltoes -0.458143
914
root 10.303 17.7923 -1.53568 -2.71974 -0.729062 -1.23971
lowerback 11.8876 1.53632 6.06171
upperback 8.83586 2.57397 -1.47862
thorax 3.00755 1.63202 -5.18457
lowerneck -8.58305 4.53035 0.999778
upperneck 39.0234 7.61736 -2.20679
head 15.2142 3.13887 0.0390892
rclavicle 1.04859e-014 -7.7526e-015
rhumerus -1.35095 75.6889 -68.9692
rradius 99.2629
rwrist -42.4594
rhand -17.0142 12.7087
rfingers 7.12502
rthumb 9.22166 -17.0697
lclavicle 1.04859e-014 -7.7526e-015
lhumerus -29.163 8.88485 82.7768
lradius 42.9446
lwrist 36.0793
lhand -19.5988 19.5815
lfingers 7.12502
lthumb 6.7271 49.4546
rfemur -4.88371 -3.58029 19.6286
rtibia 21.7106
rfoot -12.1255 -17.531
rtoes 1.30723
lfemur -9.30616 0.31769 -19.6886
ltibia 26.8667
lfoot -12.816 12.1697
ltoes -0.452043
915
root 10.305 17.7975 -1.51005 -2.96833 -1.0519 -1.1993
lowerback 11.682 1.52636 5.87304
upperback 8.63947 2.5354 -1.4515
thorax 2.88819 1.59268 -5.04232
lowerneck -8.49788 4.56047 1.17285
upperneck 38.9435 7.71779 -2.49115
head 15.1841 3.17078 -0.0987359
rclavicle -1.19768e-014 1.80894e-014
rhumerus -1.50844 75.4227 -68.9935
rradius 100.231
rwrist -43.2837
rhand -16.5876 12.3202
rfingers 7.12502
rthumb 9.63325 -17.4395
lclavicle -1.19768e-014 1.80894e-014
lhumerus -29.3339 9.05277 82.7147
lradius 42.5338
lwrist 36.3678
lhand -20.3041 20.0499
lfingers 7.12502
lthumb 6.04622 49.9436
rfemur -4.36396 -3.38284 19.5761
rtibia 21.359
rfoot -12.1264 -17.3906
rtoes 1.0118
lfemur -8.76032 0.377378 -19.7374
ltibia 26.6427
lfoot -12.8083 12.4486
ltoes -0.926586
